<?xml version="1.0" standalone="no"?>
<!DOCTYPE svg PUBLIC "-//W3C//DTD SVG 20010904//EN"
 "http://www.w3.org/TR/2001/REC-SVG-20010904/DTD/svg10.dtd">
<svg version="1.0" xmlns="http://www.w3.org/2000/svg"
 width="700.000000pt" height="700.000000pt" viewBox="0 0 700.000000 700.000000"
 preserveAspectRatio="xMidYMid meet">
<metadata>
Created by potrace 1.14, written by Peter Selinger 2001-2017
</metadata>
<g transform="translate(0.000000,700.000000) scale(0.100000,-0.100000)"
fill="#000000" stroke="none">
<path d="M3215 6994 c-527 -52 -991 -193 -1418 -433 -575 -321 -1037 -783
-1359 -1358 -213 -382 -345 -781 -415 -1258 -14 -95 -18 -187 -18 -445 0 -348
7 -419 61 -695 198 -995 833 -1864 1731 -2366 381 -214 782 -346 1258 -416
152 -22 706 -25 855 -5 691 95 1270 339 1784 752 639 514 1087 1249 1240 2038
55 283 61 346 61 692 0 346 -6 409 -61 692 -148 762 -575 1482 -1179 1989
-517 433 -1119 699 -1800 795 -114 16 -633 28 -740 18z m-530 -2533 c350 -91
595 -382 660 -784 20 -121 19 -365 0 -487 -49 -298 -193 -529 -423 -678 -134
-86 -299 -127 -507 -126 -276 2 -470 78 -640 248 -172 172 -259 377 -286 674
-26 289 38 594 166 787 136 205 333 334 578 381 106 20 349 12 452 -15z m1385
-436 c0 -234 4 -425 8 -425 5 0 211 191 458 424 l449 425 175 0 c170 1 174 1
155 -17 -81 -76 -572 -537 -758 -711 l-228 -215 543 -543 543 -543 -176 0
-177 0 -488 490 c-268 270 -491 490 -496 490 -4 0 -8 -220 -8 -490 l0 -490
-135 0 -135 0 0 1015 0 1015 135 0 135 0 0 -425z"/>
<path d="M2344 4269 c-265 -25 -459 -211 -542 -517 -24 -90 -26 -112 -26 -312
-1 -253 14 -331 90 -489 37 -76 61 -109 127 -176 90 -90 164 -133 278 -160 82
-19 226 -19 308 0 239 57 415 260 478 555 25 119 25 409 0 530 -85 396 -346
605 -713 569z"/>
</g>
</svg>
